HIERARCHY
ROOT Hips
{
  OFFSET -35.2597 29.1586 114.425
  CHANNELS 6 Xposition Yposition Zposition Zrotation Xrotation Yrotation
  JOINT LeftUpLeg
  {
    OFFSET 8.64259 1.95398 -2.38835
    CHANNELS 3 Zrotation Xrotation Yrotation
    JOINT LeftLeg
    {
      OFFSET 43.7702 0 0
      CHANNELS 3 Zrotation Xrotation Yrotation
      JOINT LeftFoot
      {
        OFFSET 40.6238 0 0
        CHANNELS 3 Zrotation Xrotation Yrotation
        JOINT LeftToeBase
        {
          OFFSET 12.7242 0 0
          CHANNELS 3 Zrotation Xrotation Yrotation
          End Site
          {
            OFFSET 0 0 0
          }
        }
      }
    }
  }
  JOINT RightUpLeg
  {
    OFFSET -8.2249 1.95398 -2.59336
    CHANNELS 3 Zrotation Xrotation Yrotation
    JOINT RightLeg
    {
      OFFSET 43.5653 0 0
      CHANNELS 3 Zrotation Xrotation Yrotation
      JOINT RightFoot
      {
        OFFSET 40.6238 0 0
        CHANNELS 3 Zrotation Xrotation Yrotation
        JOINT RightToeBase
        {
          OFFSET 12.7242 0 0
          CHANNELS 3 Zrotation Xrotation Yrotation
          End Site
          {
            OFFSET 0 0 0
          }
        }
      }
    }
  }
  JOINT Spine
  {
    OFFSET 0.165834 0.87714 6.61349
    CHANNELS 3 Zrotation Xrotation Yrotation
    JOINT Spine1
    {
      OFFSET 7.38963 1.71661e-005 0
      CHANNELS 3 Zrotation Xrotation Yrotation
      JOINT Spine2
      {
        OFFSET 11.9445 1.14441e-005 0
        CHANNELS 3 Zrotation Xrotation Yrotation
        JOINT Spine3
        {
          OFFSET 14.7254 4.19617e-005 0
          CHANNELS 3 Zrotation Xrotation Yrotation
          JOINT Spine4
          {
            OFFSET 10.9679 0 0
            CHANNELS 3 Zrotation Xrotation Yrotation
            JOINT RightShoulder
            {
              OFFSET 2.46616 -1.6653 3.69651
              CHANNELS 3 Zrotation Xrotation Yrotation
              JOINT RightArm
              {
                OFFSET 13.0012 0 0
                CHANNELS 3 Zrotation Xrotation Yrotation
                JOINT RightForeArm
                {
                  OFFSET 28.7848 1.62311e-005 0
                  CHANNELS 3 Zrotation Xrotation Yrotation
                  JOINT RightHand
                  {
                    OFFSET 26.5688 1.62095e-005 0
                    CHANNELS 3 Zrotation Xrotation Yrotation
                    End Site
                    {
                      OFFSET 0 0 0
                    }
                  }
                }
              }
            }
            JOINT LeftShoulder
            {
              OFFSET 2.38034 -1.29275 -3.7523
              CHANNELS 3 Zrotation Xrotation Yrotation
              JOINT LeftArm
              {
                OFFSET 16.3182 6.07031e-005 0
                CHANNELS 3 Zrotation Xrotation Yrotation
                JOINT LeftForeArm
                {
                  OFFSET 27.0901 0 0
                  CHANNELS 3 Zrotation Xrotation Yrotation
                  JOINT LeftHand
                  {
                    OFFSET 24.5451 1.51738e-005 0
                    CHANNELS 3 Zrotation Xrotation Yrotation
                    End Site
                    {
                      OFFSET 0 0 0
                    }
                  }
                }
              }
            }
            JOINT Neck
            {
              OFFSET 5.0226 -0.0266342 0
              CHANNELS 3 Zrotation Xrotation Yrotation
              JOINT Head
              {
                OFFSET 6.69364 2.86102e-005 0
                CHANNELS 3 Zrotation Xrotation Yrotation
                End Site
                {
                  OFFSET 0 0 0
                }
              }
            }
          }
        }
      }
    }
  }
}
MOTION
Frames:	18
Frame Time:	0.0416667
38.4552 100.858 -321.794 -162.826 -84.2062 -163.229 -172.743 7.10187 89.2399 5.75197 47.9135 -7.74924 58.6564 -1.35623 16.2822 128.734 61.6974 38.8136 174.721 4.74235 89.8449 -24.9312 -7.90658 -1.01669 66.2275 0.434003 3.49028 31.8526 -2.63696 5.20099 1.04721 7.26301 -89.8054 12.3486 2.17343 0.142053 0.679434 2.17758 0.0462128 -21.8688 2.03022 0.788959 -1.85618 2.03022 0.788962 102.082 -35.2879 -82.1989 53.405 2.46 -6.80567 -7.24794 -61.1901 -6.89332 -25.58 2.76911 -17.6768 -87.4706 -54.7762 83.3053 -26.1492 -12.2849 -14.7855 4.21609 49.5163 -5.29942 -2.41271 -0.0875108 -12.9246 2.19241 -2.0003 -3.53036 -5.11616 -1.39389 -0.604652 
38.5099 100.866 -321.735 -159.919 -84.1963 -160.373 -173.092 6.58567 89.1015 5.11848 46.9896 -7.01131 58.7755 -1.26724 16.3564 122.561 61.4997 46.1841 174.683 4.08737 89.7383 -23.5187 -8.09104 -0.991256 67.0467 -0.570866 2.8436 30.514 -2.25363 5.59091 1.06867 7.23969 -89.8138 12.3955 2.21204 0.119609 0.726403 2.21516 0.0220781 -21.8224 2.07378 0.779163 -1.80978 2.07379 0.77917 97.9606 -37.9498 -89.7023 49.6518 4.7027 -5.21492 -6.75053 -57.6998 -6.484 -25.4085 2.87501 -18.2417 -87.6947 -55.0283 83.0264 -26.0729 -12.3712 -14.1682 4.21919 49.5436 -5.30239 -1.49529 -0.161794 -13.6687 1.50318 -2.21262 -3.36123 -5.02362 -1.64044 -0.91997 
38.4568 100.839 -321.657 -158.306 -84.0261 -158.712 -173.369 4.98039 89.2343 4.31179 45.6495 -6.16934 58.8329 -1.12153 16.5382 109.022 59.2352 61.9062 174.467 1.86712 89.8833 -19.6817 -9.24876 -0.723582 70.1827 -4.30785 0.0172832 24.4425 -0.115238 5.85599 1.09205 7.27269 -89.8302 12.3299 2.25084 0.0844243 0.660893 2.25237 -0.0147844 -21.8886 2.12136 0.757294 -1.87594 2.12135 0.757286 97.726 -38.2315 -90.0889 49.1899 4.93213 -5.11307 -6.70648 -57.3549 -6.44843 -25.5718 2.89527 -18.2452 -87.7767 -54.9474 82.8967 -26.0917 -12.3768 -13.9868 4.16556 49.0143 -5.24563 -2.0504 -0.117096 -14.785 2.61077 -2.47802 -2.69696 -6.79923 -1.92173 -1.80486 
38.3679 101.118 -321.537 -156.667 -83.9886 -156.868 -173.633 2.4046 89.5986 3.84078 43.4726 -5.1848 58.6277 -1.0995 16.533 91.4663 50.2892 81.2081 174.535 1.01214 90.0874 -17.9858 -9.33762 -0.68116 69.0882 -3.95213 0.224873 24.5463 -0.0893577 5.66399 1.09168 7.26261 -89.8725 12.3509 2.22995 0.00163413 0.681837 2.22786 -0.0965675 -21.8677 2.12632 0.672058 -1.85502 2.12632 0.672056 97.6372 -38.1025 -90.2651 49.0695 5.0065 -5.04137 -6.64711 -56.8787 -6.40115 -24.8705 2.8338 -18.3518 -87.8996 -55.1376 82.7531 -26.0149 -12.4277 -13.8045 4.15915 48.9488 -5.23871 -2.67905 -0.0662627 -14.9899 2.81264 -2.86459 -2.40893 -7.84062 -2.30736 -2.16891 
38.2307 101.354 -321.325 -154.646 -83.9143 -154.815 -174.069 0.2042 89.4233 1.91586 39.8885 -3.79313 58.2906 -1.13579 16.1144 79.1216 33.423 90.5493 174.45 0.247805 90.0913 -16.6087 -9.36958 -0.563187 68.4902 -3.93561 0.562589 24.4181 -0.0341402 5.64154 1.08051 7.28214 -89.8937 12.3121 2.19778 -0.0359542 0.643035 2.19407 -0.132715 -21.9062 2.10693 0.626524 -1.89354 2.10694 0.626527 97.3874 -38.3007 -90.6931 48.9743 4.99734 -5.20548 -6.67221 -57.0812 -6.42108 -25.2222 2.5725 -16.9723 -87.8226 -55.4445 82.9119 -26.4562 -12.1993 -14.045 4.17881 49.1452 -5.2595 -0.0243915 -0.254655 -12.3663 3.57926 -3.30818 -2.2161 -9.03683 -2.74328 -2.12785 
37.9282 101.532 -321.121 -153.109 -84.2146 -153.1 -173.826 -1.07362 89.7078 -0.955365 35.3103 -3.30101 57.9973 -1.17576 14.8206 69.7772 14.3589 83.2482 174.73 -0.391741 90.6034 -14.8029 -9.3585 -0.562467 67.7712 -3.94908 0.340612 24.3846 0.0679636 5.37198 1.06446 7.24577 -89.9233 12.3853 2.1517 -0.0918105 0.716128 2.14557 -0.186474 -21.8327 2.07976 0.559393 -1.82003 2.07977 0.559387 97.1583 -38.4586 -91.0866 48.4895 5.24313 -5.09069 -6.74598 -57.6648 -6.48007 -25.236 2.69519 -17.5215 -88.0593 -55.4666 82.5808 -26.1587 -12.3444 -13.9956 4.1573 48.8966 -5.23779 -0.41612 -0.229916 -12.5217 3.89458 -3.63766 -2.06801 -9.8401 -3.05978 -2.30962 
37.3841 101.694 -320.777 -153.102 -84.2776 -153.322 -173.984 -2.70818 89.6847 -3.51518 27.4791 -2.23519 56.8622 -1.96294 11.0556 58.0766 -0.271077 61.8922 174.739 -1.11673 90.6081 -13.8136 -9.37024 -0.517107 67.3928 -4.07964 0.071795 24.6134 -0.0307268 5.41009 1.01293 7.26069 -89.9364 12.3555 2.0431 -0.104968 0.68614 2.0365 -0.194832 -21.8614 1.98016 0.514167 -1.84874 1.98015 0.514161 96.673 -37.7948 -92.0595 48.5239 5.25798 -4.99401 -6.64244 -56.841 -6.39745 -25.2459 2.7242 -17.6395 -87.902 -55.7888 82.8551 -25.9312 -12.4403 -14.1464 4.13984 48.6712 -5.22018 -0.874925 -0.206344 -13.2447 4.36404 -3.55523 -1.10811 -10.7999 -3.07075 -2.90965 
36.7307 101.847 -320.358 -155.033 -84.552 -155.309 -174.159 -3.27965 89.8232 -6.75099 15.9805 -1.05152 55.5702 -3.12913 3.75746 48.4508 -1.32463 34.4134 174.641 -1.97662 90.8585 -12.442 -9.2152 -0.19756 67.2597 -4.41355 0.0303876 23.836 0.267861 5.39196 0.957958 7.26337 -89.9461 12.3497 1.92933 -0.111101 0.680186 1.92255 -0.195946 -21.866 1.87348 0.474082 -1.85337 1.87349 0.474081 95.6871 -37.6404 -93.8732 47.7561 5.73579 -4.4898 -6.46696 -55.3613 -6.25975 -25.3138 2.9321 -18.5552 -87.9391 -55.5574 82.7654 -26.021 -12.3951 -14.1791 4.11091 48.3014 -5.19101 -1.3712 -0.169556 -13.4039 4.38955 -3.56706 -1.28034 -11.2043 -3.08339 -2.44697 
35.7029 102.03 -319.765 -159.204 -84.6529 -159.356 -173.693 -2.41224 90.9039 -11.7648 2.81627 -0.336857 54.5559 -4.95343 -6.74653 45.618 3.72225 13.6652 175.022 -3.79209 91.6393 -9.84737 -8.37286 -0.0990027 66.4864 -4.62406 -0.132402 23.7279 0.247262 5.57153 0.898858 7.29169 -89.9976 12.2935 1.78752 -0.19662 0.623735 1.77714 -0.275135 -21.9211 1.76394 0.349868 -1.90842 1.76394 0.349859 95.0196 -37.0961 -95.191 47.3958 5.95475 -4.26263 -6.42733 -55.0105 -6.22917 -24.4881 2.73426 -18.1027 -87.8196 -56.1902 83.0352 -25.3563 -12.7209 -14.0372 4.01191 47.0347 -5.09096 -1.12395 -0.199195 -14.3194 3.85644 -3.49091 -1.239 -11.2512 -3.08375 -1.7555 
34.5149 102.085 -319.008 -169.932 -84.7209 -170.79 -173.812 -2.24111 91.2618 -14.3079 -7.34198 0.463078 52.115 -6.64907 -16.2642 45.4047 7.6396 0.169927 174.579 -4.70034 91.4441 -9.61181 -7.79627 0.285758 66.9055 -4.91164 -0.196692 23.5637 0.328393 5.5145 0.76296 7.33779 -89.9411 12.1997 1.54445 -0.0544968 0.529653 1.54055 -0.122437 -22.0125 1.48941 0.412302 -1.99986 1.4894 0.412291 93.0514 -37.0503 -98.7918 46.3657 6.58985 -3.52858 -6.33737 -54.193 -6.16024 -24.0161 2.66726 -18.0503 -87.4421 -56.7065 83.6435 -24.7688 -12.9988 -14.0224 3.92486 45.8482 -5.0027 -1.34557 -0.171779 -14.1726 2.61986 -2.97523 -1.24097 -10.5026 -2.66856 -0.933716 
33.099 101.854 -318.105 -174.169 -84.6441 -175.502 -173.383 -2.17327 91.8501 -15.6802 -8.0181 0.439308 52.4723 -5.91651 -18.1046 45.9663 8.02281 -0.327252 174.372 -5.20008 91.5501 -10.3228 -7.42453 0.590954 68.3514 -5.68017 -0.168891 23.2142 0.348356 5.83628 0.717708 7.39108 -89.9 12.0925 1.47409 0.0376613 0.422365 1.47432 -0.0272768 -22.119 1.3946 0.47903 -2.10637 1.39461 0.479023 91.6076 -36.8974 -101.455 45.9166 6.79353 -3.45634 -6.27264 -53.5859 -6.11138 -24.5873 2.57199 -17.2934 -87.2748 -57.0747 83.932 -23.8333 -13.4674 -13.5406 3.5842 40.4454 -4.65715 -4.66884 0.132832 -15.7582 1.62716 -2.38965 -1.08703 -9.91236 -2.18453 -0.222768 
31.7427 100.9 -317.483 173.199 -84.7891 171.71 -172.876 0.263009 92.5265 -19.6245 2.67485 0.0223854 58.0704 -1.00234 -10.4372 47.1328 4.22969 14.9582 173.945 -2.96281 92.1123 -15.8114 -6.61105 1.32347 71.982 -6.4785 -0.526446 22.8728 0.20442 6.61791 0.552447 7.48349 -89.9237 11.9074 1.13445 0.0297715 0.236966 1.13466 -0.0202034 -22.3018 1.07305 0.369378 -2.28915 1.07305 0.369379 89.629 -35.7358 -105.418 45.7563 6.69954 -4.05186 -6.09831 -51.8612 -5.98166 -24.0999 2.46506 -17.039 -86.3406 -57.4975 85.2884 -23.4691 -13.6464 -13.3536 3.41511 37.2484 -4.48711 -2.15453 -0.0999667 -14.6149 1.2622 -1.45935 0.599423 -8.92783 -1.50473 -0.487039 
30.7901 99.7211 -316.93 154.575 -84.2367 152.998 -173.548 6.00397 92.3219 -27.4764 18.5072 0.169103 61.2077 2.41004 1.22108 52.9447 2.54876 34.9067 173.208 -1.14339 92.2499 -20.9226 -4.80115 2.23828 76.1271 -7.28257 0.266391 23.1557 0.173639 6.40736 0.443934 7.59106 -89.9609 11.6922 0.901355 -0.0165157 0.0215735 0.899761 -0.056177 -22.516 0.864641 0.255164 -2.50331 0.864649 0.255163 87.7035 -35.3248 -109.073 43.9217 7.50707 -3.84844 -6.15176 -52.4047 -6.02114 -21.8668 2.4661 -18.3268 -85.5764 -58.6738 86.4901 -22.3073 -14.2148 -12.5462 3.2327 33.4433 -4.30014 1.85348 -0.525514 -16.1186 0.951947 -0.906856 1.59022 -7.08929 -1.10758 -0.492034 
30.2101 99.4688 -315.607 144.589 -84.3219 141.794 -174.345 11.745 90.2399 -30.2988 22.2729 -0.439789 62.2767 3.39472 5.20281 51.9644 1.12753 37.1865 173.243 -0.769557 91.8794 -22.4651 -3.50538 1.77191 77.6097 -7.31853 0.705507 22.934 0.434219 5.8918 0.702543 7.68921 -89.8517 11.4956 1.46709 0.1454 -0.174526 1.47206 0.0806638 -22.7155 1.35555 0.579674 -2.70289 1.35555 0.579664 87.1193 -35.892 -109.909 42.6745 8.05872 -3.66005 -6.10319 -51.9109 -5.98534 -21.1442 2.30134 -17.9073 -85.3589 -58.3012 86.7448 -21.9803 -14.3729 -12.2613 3.24852 33.7099 -4.31791 1.07612 -0.41901 -15.2643 1.62539 -1.58536 1.16181 -6.92047 -1.69956 -0.955959 
30.0626 100.159 -313.602 133.922 -84.717 129.266 -175.571 15.719 86.3919 -24.6829 10.2096 -1.28766 63.4482 3.26763 -0.58785 31.4832 -6.1466 15.8749 173.145 -3.24744 90.6405 -17.5679 -2.86104 1.04508 76.229 -7.72401 0.734646 23.3492 0.446415 5.39387 0.852304 7.71764 -89.6901 11.436 1.84056 0.431023 -0.233644 1.85775 0.349562 -22.7769 1.62591 0.964386 -2.76424 1.62592 0.964381 87.2258 -35.1421 -110.013 43.7067 7.48496 -4.29759 -6.01881 -51.0294 -5.92425 -21.6038 2.37649 -18.024 -85.4002 -58.4331 86.7034 -20.8787 -14.9258 -9.88032 3.24229 33.0577 -4.3291 1.28869 -0.412578 -14.371 2.14207 -1.44867 2.38614 -5.91576 -1.72668 -1.95177 
30.2775 100.151 -310.718 131.692 -85.509 126.183 -177.55 16.8072 83.9213 -12.671 6.85608 -1.85184 63.1919 3.41536 -1.72193 20.9533 -9.15802 8.39077 173.006 -5.73833 89.6289 -14.751 -2.5225 0.423877 76.6462 -8.65359 0.871864 24.33 0.247515 4.89968 1.07406 7.76187 -89.6846 11.3477 2.28435 0.399287 -0.321315 2.2997 0.298301 -22.8696 2.0587 1.06763 -2.85698 2.0587 1.06763 87.0526 -34.7291 -110.495 43.4302 7.29601 -5.52883 -6.10425 -51.9239 -5.98617 -20.9929 2.67392 -20.0406 -85.3006 -59.3351 86.9436 -18.5964 -15.8905 -6.85479 3.2128 32.3874 -4.30288 -0.725359 -0.245112 -15.3851 2.63789 -1.54308 4.11344 -5.11209 -2.1115 -2.25621 
30.7741 99.419 -306.637 149.877 -86.2283 143.865 -178.942 18.1216 82.1603 -7.87905 6.01621 -1.96285 64.3121 4.01238 -1.13733 19.6918 -9.41973 7.59296 172.608 -8.542 88.7208 -14.9692 -3.82773 -0.34757 77.9203 -9.74012 0.157949 27.5808 -0.824817 4.38115 1.3213 7.81047 -89.7442 11.2527 2.74866 0.237482 -0.415388 2.75645 0.116168 -22.9712 2.55013 1.05311 -2.95853 2.55012 1.0531 87.0333 -34.0504 -110.809 43.7365 6.90885 -6.54985 -6.13971 -52.2843 -6.01225 -21.1178 2.53262 -19.1795 -85.185 -60.8209 87.2654 -17.099 -16.4361 -3.61976 3.13055 30.9395 -4.20031 -0.390386 -0.268774 -14.6474 1.65318 -1.10752 5.91531 -4.28653 -1.92695 -2.72988 
31.1087 98.2164 -300.629 -177.689 -85.8894 175.979 -178.184 17.7836 81.1143 -9.3673 4.93304 -3.153 63.4174 3.44571 -1.31251 20.1647 -8.6753 6.91501 171.459 -13.0885 87.1553 -15.417 -5.12095 -0.866843 78.4258 -9.66167 0.976001 32.4879 -2.78518 4.83429 1.4986 7.85577 -89.7663 11.1635 3.0913 0.16253 -0.503814 3.09545 0.02618 -23.0656 2.89942 1.08485 -3.05299 2.89942 1.08485 86.8936 -33.9791 -111.095 43.612 6.77061 -7.31249 -6.24451 -53.3179 -6.09015 -21.4042 2.55621 -19.1097 -84.886 -62.6472 87.855 -15.4459 -16.9325 -0.319916 3.06204 29.3171 -4.12534 1.46977 -0.385668 -13.2843 1.55515 -0.941202 6.76409 -4.73479 -1.85358 -3.49398 
